<?xml version="1.0" encoding="utf-8"?>
<!-- Generator: Adobe Illustrator 24.3.0, SVG Export Plug-In . SVG Version: 6.00 Build 0)  -->
<svg version="1.1" id="Layer_1" xmlns="http://www.w3.org/2000/svg" xmlns:xlink="http://www.w3.org/1999/xlink" x="0px" y="0px"
	 viewBox="0 0 98 52" style="enable-background:new 0 0 98 52;" xml:space="preserve">
<style type="text/css">
	.st0{fill-rule:evenodd;clip-rule:evenodd;fill:#6B7B84;stroke:#80949F;stroke-width:0.5;}
	.st1{fill-rule:evenodd;clip-rule:evenodd;fill:#6B7B84;}
	.st2{fill:none;stroke:#80949F;stroke-width:0.5;}
	.st3{fill:#80949F;}
</style>
<path class="st0" d="M36.5,0.58c-0.55,0-1,0.45-1,1v4.27c0,0.55,0.45,1,1,1h36.33c10.13,0,18.08,7.8,18.08,17.89
	c0,0.29,0.23,0.52,0.52,0.52h5.26c0.29,0,0.52-0.23,0.52-0.52c0-13.49-10.84-24.16-24.38-24.16H36.5z"/>
<path class="st0" d="M7.04,25.7c0-0.24-0.2-0.44-0.44-0.44h-5.5c-0.24,0-0.44,0.2-0.44,0.44c0,13.65,10.22,24.92,23.44,25.66
	l42.34,0.04c0.55,0,1-0.45,1-1v-4.58c0-0.55-0.45-1-1-1H25.56C15.32,44.78,7.04,36.27,7.04,25.7z"/>
<path class="st1" d="M28.07,39.78c2.74,0,5.02-0.53,7.27-1.63L35.5,38v-7.83l-0.84,1.08c-1.62,1.77-3.8,2.75-6.27,2.75
	c-4.59,0-9.2-2.97-9.2-8.64c0-4.29,3.18-8.84,9.04-8.84c1.17,0,4.01,0.28,6.42,2.84l0.85,1.04v-7.8l-0.15-0.15
	c-2.3-1.15-4.64-1.71-7.31-1.71c-4.57,0-8.13,1.2-10.97,3.67c-1.8,1.55-4.8,5.02-4.8,10.86c0,4.32,1.54,7.7,4.83,10.62
	C20.16,38.58,23.55,39.78,28.07,39.78z"/>
<path class="st2" d="M28.07,39.78c2.74,0,5.02-0.53,7.27-1.63L35.5,38v-7.83l-0.84,1.08c-1.62,1.77-3.8,2.75-6.27,2.75
	c-4.59,0-9.2-2.97-9.2-8.64c0-4.29,3.18-8.84,9.04-8.84c1.17,0,4.01,0.28,6.42,2.84l0.85,1.04v-7.8l-0.15-0.15
	c-2.3-1.15-4.64-1.71-7.31-1.71c-4.57,0-8.13,1.2-10.97,3.67c-1.8,1.55-4.8,5.02-4.8,10.86c0,4.32,1.54,7.7,4.83,10.62
	C20.16,38.58,23.55,39.78,28.07,39.78"/>
<path class="st1" d="M47.84,17.27h1.36c1.25,0,2.68,0.07,3.76,0.8c0.53,0.38,1.41,1.25,1.41,2.83c0,1.17-0.52,2.22-1.37,2.87
	c-1.1,0.79-2.4,0.75-3.44,0.75h-1.72V17.27z M50.91,29.8c3.23,0,5.76-0.93,7.52-2.69c2.16-2.16,2.48-5.12,2.48-6.69
	c0-1.67-0.4-4.94-3.06-7.3c-2.18-1.91-4.51-2.39-7.79-2.39h-8.75v29.04h6.66V29.8H50.91z"/>
<path class="st3" d="M47.84,17.27v-0.25h-0.25v0.25H47.84z M52.96,18.08l0.15-0.2l0,0L52.96,18.08z M53,23.78l0.15,0.2l0.01,0
	L53,23.78z M47.84,24.53h-0.25v0.25h0.25V24.53z M58.42,27.11l-0.18-0.18l0,0L58.42,27.11z M57.85,13.13l0.17-0.19l0,0L57.85,13.13z
	 M41.31,10.74v-0.25h-0.25v0.25H41.31z M41.31,39.78h-0.25v0.25h0.25V39.78z M47.97,39.78v0.25h0.25v-0.25H47.97z M47.97,29.8v-0.25
	h-0.25v0.25H47.97z M47.84,17.52h1.36v-0.5h-1.36V17.52z M49.21,17.52c1.26,0,2.61,0.07,3.62,0.76l0.28-0.41
	c-1.15-0.78-2.65-0.85-3.9-0.85V17.52z M52.82,18.28c0.49,0.35,1.31,1.15,1.31,2.63h0.5c0-1.69-0.95-2.63-1.52-3.04L52.82,18.28z
	 M54.12,20.91c0,1.1-0.48,2.07-1.27,2.68l0.3,0.4c0.92-0.7,1.47-1.83,1.47-3.07H54.12z M52.86,23.58c-1.02,0.74-2.23,0.7-3.3,0.7
	v0.5c1.03,0,2.42,0.05,3.59-0.8L52.86,23.58z M49.56,24.28h-1.72v0.5h1.72V24.28z M48.09,24.53v-7.26h-0.5v7.26H48.09z M50.91,30.05
	c3.28,0,5.88-0.95,7.69-2.76l-0.35-0.35c-1.7,1.7-4.16,2.61-7.34,2.61V30.05z M58.6,27.29c2.23-2.23,2.56-5.28,2.56-6.86h-0.5
	c0,1.54-0.32,4.42-2.41,6.51L58.6,27.29z M61.16,20.43c0-1.7-0.4-5.05-3.14-7.49l-0.33,0.37c2.58,2.29,2.97,5.47,2.97,7.11H61.16z
	 M58.02,12.94c-2.25-1.97-4.64-2.45-7.95-2.45v0.5c3.25,0,5.51,0.47,7.62,2.33L58.02,12.94z M50.06,10.49h-8.75v0.5h8.75V10.49z
	 M41.06,10.74v29.04h0.5V10.74H41.06z M41.31,40.03h6.66v-0.5h-6.66V40.03z M48.22,39.78V29.8h-0.5v9.97H48.22z M47.97,30.05h2.94
	v-0.5h-2.94V30.05z"/>
<path class="st1" d="M80.88,24.45c-1.45-1.28-3.47-2.03-5.76-2.8c-1.63-0.57-2.53-0.88-3.13-1.43c-0.47-0.4-0.68-0.84-0.68-1.42
	c0-1.26,0.86-2.61,3.27-2.61c1.64,0,3.01,0.7,4.08,2.08l0.42,0.55l3.52-4.48l-0.32-0.32c-2.15-2.15-4.98-3.29-8.2-3.29
	c-6.48,0-9.38,4.21-9.38,8.39c0,2.24,0.8,4.05,2.37,5.37c1.41,1.21,3.12,1.88,4.77,2.43L72.02,27c1.46,0.48,2.97,0.98,3.88,1.79
	c0.63,0.58,0.91,1.2,0.91,2.03c0,1.9-1.5,3.18-3.72,3.18c-1.76,0-4.08-0.86-5.3-3.28l-0.32-0.63l-4.37,4.05l0.26,0.36
	c1.39,1.97,4.54,5.29,9.95,5.29c5.96,0,10.12-3.83,10.12-9.32C83.41,27.32,82.04,25.46,80.88,24.45z"/>
<path class="st2" d="M80.88,24.45c-1.45-1.28-3.47-2.03-5.76-2.8c-1.63-0.57-2.53-0.88-3.13-1.43c-0.47-0.4-0.68-0.84-0.68-1.42
	c0-1.26,0.86-2.61,3.27-2.61c1.64,0,3.01,0.7,4.08,2.08l0.42,0.55l3.52-4.48l-0.32-0.32c-2.15-2.15-4.98-3.29-8.2-3.29
	c-6.48,0-9.38,4.21-9.38,8.39c0,2.24,0.8,4.05,2.37,5.37c1.41,1.21,3.12,1.88,4.77,2.43L72.02,27c1.46,0.48,2.97,0.98,3.88,1.79
	c0.63,0.58,0.91,1.2,0.91,2.03c0,1.9-1.5,3.18-3.72,3.18c-1.76,0-4.08-0.86-5.3-3.28l-0.32-0.63l-4.37,4.05l0.26,0.36
	c1.39,1.97,4.54,5.29,9.95,5.29c5.96,0,10.12-3.83,10.12-9.32C83.41,27.32,82.04,25.46,80.88,24.45"/>
</svg>
